<svg width="31" height="37" viewBox="0 0 31 37" fill="none" xmlns="http://www.w3.org/2000/svg">
<path d="M9.74363 15.7599C9.74363 14.2212 10.3549 12.7456 11.4428 11.6576C12.5308 10.5697 14.0064 9.95845 15.5451 9.95845C17.0837 9.95845 18.5593 10.5697 19.6473 11.6576C20.7353 12.7456 21.3465 14.2212 21.3465 15.7599C21.3465 17.2985 20.7353 18.7741 19.6473 19.8621C18.5593 20.9501 17.0837 21.5613 15.5451 21.5613C14.0064 21.5613 12.5308 20.9501 11.4428 19.8621C10.3549 18.7741 9.74363 17.2985 9.74363 15.7599Z" fill="#FA614F"/>
<path fill-rule="evenodd" clip-rule="evenodd" d="M0.861213 13.7553C1.15733 10.1666 2.792 6.82038 5.44073 4.38097C8.08946 1.94156 11.5586 0.587261 15.1595 0.586914H15.9306C19.5315 0.587261 23.0007 1.94156 25.6494 4.38097C28.2981 6.82038 29.9328 10.1666 30.2289 13.7553C30.5597 17.7618 29.3227 21.7403 26.7784 24.8529L18.2227 35.3169C17.8984 35.7138 17.4899 36.0337 17.0268 36.2533C16.5637 36.473 16.0576 36.5869 15.5451 36.5869C15.0325 36.5869 14.5264 36.473 14.0633 36.2533C13.6002 36.0337 13.1918 35.7138 12.8675 35.3169L4.31351 24.8529C1.76857 21.7406 0.530899 17.762 0.861213 13.7553ZM15.5451 7.28087C13.2963 7.28087 11.1396 8.17419 9.54951 9.76431C7.95938 11.3544 7.06606 13.5111 7.06606 15.7599C7.06606 18.0086 7.95938 20.1653 9.54951 21.7554C11.1396 23.3456 13.2963 24.2389 15.5451 24.2389C17.7938 24.2389 19.9505 23.3456 21.5406 21.7554C23.1308 20.1653 24.0241 18.0086 24.0241 15.7599C24.0241 13.5111 23.1308 11.3544 21.5406 9.76431C19.9505 8.17419 17.7938 7.28087 15.5451 7.28087Z" fill="#FA614F"/>
</svg>
