<svg width="27" height="37" viewBox="0 0 27 37" fill="none" xmlns="http://www.w3.org/2000/svg">
<path d="M5.19609 1.37678L7.13472 0.757574C8.94914 0.177967 10.8896 1.11578 11.6672 2.9482L13.2152 6.59864C13.8902 8.18806 13.5158 10.0583 12.29 11.2211L8.88254 14.4575C9.09314 16.3944 9.74295 18.3006 10.8338 20.1762C11.8703 21.9909 13.2603 23.5793 14.9216 24.8473L19.0185 23.4792C20.5701 22.9626 22.2603 23.5584 23.2125 24.9571L25.4301 28.2151C26.5389 29.8423 26.3391 32.0851 24.9657 33.464L23.4933 34.9418C22.0281 36.4124 19.9365 36.947 17.9996 36.3422C13.4294 34.9166 9.22814 30.6847 5.3941 23.6466C1.55465 16.5978 0.201035 10.6145 1.32965 5.70403C1.80485 3.63761 3.27727 1.99059 5.19969 1.37678" fill="#FA614F"/>
</svg>
