<svg width="36" height="36" viewBox="0 0 36 36" fill="none" xmlns="http://www.w3.org/2000/svg">
<path d="M25.1752 21.0869C25.3152 19.9319 25.4202 18.7769 25.4202 17.5869C25.4202 16.3969 25.3152 15.2419 25.1752 14.0869H31.0902C31.3702 15.2069 31.5452 16.3794 31.5452 17.5869C31.5452 18.7944 31.3702 19.9669 31.0902 21.0869M22.0777 30.8169C23.1277 28.8744 23.9327 26.7744 24.4927 24.5869H29.6552C27.9597 27.5064 25.2699 29.7179 22.0777 30.8169ZM21.6402 21.0869H13.4502C13.2752 19.9319 13.1702 18.7769 13.1702 17.5869C13.1702 16.3969 13.2752 15.2244 13.4502 14.0869H21.6402C21.7977 15.2244 21.9202 16.3969 21.9202 17.5869C21.9202 18.7769 21.7977 19.9319 21.6402 21.0869ZM17.5452 31.5169C16.0927 29.4169 14.9202 27.0894 14.2027 24.5869H20.8877C20.1702 27.0894 18.9977 29.4169 17.5452 31.5169ZM10.5452 10.5869H5.43517C7.11316 7.65954 9.80106 5.44452 12.9952 4.35691C11.9452 6.29941 11.1577 8.39941 10.5452 10.5869ZM5.43517 24.5869H10.5452C11.1577 26.7744 11.9452 28.8744 12.9952 30.8169C9.80776 29.7173 7.12365 27.5054 5.43517 24.5869ZM4.00017 21.0869C3.72017 19.9669 3.54517 18.7944 3.54517 17.5869C3.54517 16.3794 3.72017 15.2069 4.00017 14.0869H9.91517C9.77517 15.2419 9.67017 16.3969 9.67017 17.5869C9.67017 18.7769 9.77517 19.9319 9.91517 21.0869M17.5452 3.63941C18.9977 5.73941 20.1702 8.08441 20.8877 10.5869H14.2027C14.9202 8.08441 16.0927 5.73941 17.5452 3.63941ZM29.6552 10.5869H24.4927C23.945 8.41947 23.1339 6.32723 22.0777 4.35691C25.2977 5.45941 27.9752 7.68191 29.6552 10.5869ZM17.5452 0.0869141C7.86767 0.0869141 0.045166 7.96191 0.045166 17.5869C0.045166 22.2282 1.88891 26.6794 5.1708 29.9613C6.79582 31.5863 8.72501 32.8754 10.8482 33.7548C12.9714 34.6343 15.247 35.0869 17.5452 35.0869C22.1865 35.0869 26.6376 33.2432 29.9195 29.9613C33.2014 26.6794 35.0452 22.2282 35.0452 17.5869C35.0452 15.2888 34.5925 13.0132 33.7131 10.89C32.8336 8.76676 31.5446 6.83757 29.9195 5.21255C28.2945 3.58752 26.3653 2.29848 24.2421 1.41902C22.1189 0.539565 19.8433 0.0869141 17.5452 0.0869141Z" fill="#FA614F"/>
</svg>
