<svg width="61" height="16" viewBox="0 0 61 16" fill="none" xmlns="http://www.w3.org/2000/svg">
<path fill-rule="evenodd" clip-rule="evenodd" d="M29.7819 5.48557C30.5013 4.84419 31.2907 4.28149 32.128 3.7967C34.0443 2.68634 36.2141 1.97978 38.384 1.62303C41.2772 1.15328 44.4346 1.1448 47.4438 1.73912C50.4381 2.33152 53.2866 3.52171 55.5716 5.46204C56.3329 6.10651 57.0498 6.84354 57.7117 7.62453C58.3727 8.40437 58.981 9.22779 59.4608 10.1052L60.3904 12.0328L60.735 12.928L60.7664 12.9391L60.7615 12.9411C60.7281 12.9588 60.716 13.0005 60.7337 13.0329L60.8895 12.965C60.9499 12.8296 60.9628 12.6746 60.9507 12.5072C60.9358 12.2889 60.8626 12.0679 60.8263 11.8889C60.7531 11.6001 60.675 11.3143 60.5784 11.032C60.4346 10.6077 60.2551 10.1974 60.0667 9.79357C59.6098 8.84365 59.0381 7.92652 58.363 7.08613C57.6899 6.2496 56.9146 5.49483 56.1143 4.8199C53.7142 2.8005 50.7319 1.56094 47.5967 0.956589C44.4929 0.357635 41.2398 0.381928 38.2612 0.879449C36.004 1.25355 33.7544 2.00369 31.7565 3.15224C30.8809 3.65631 30.0536 4.23676 29.296 4.8978C25.4808 0.527713 19.6557 -0.417579 14.0974 1.22039C11.2714 2.05306 8.4848 3.5221 6.15434 5.60282C3.93699 7.58133 2.15361 10.0982 0.97086 12.9414C0.931008 13.0267 0.968037 13.1281 1.05338 13.1678C1.13873 13.208 1.24018 13.1705 1.28004 13.0853C2.6532 10.4477 4.63343 8.24623 6.86849 6.44397C9.16916 4.58887 11.7605 3.17036 14.4408 2.40248C19.5538 0.9373 24.91 1.7368 28.3962 5.75785C27.7751 6.40695 27.2171 7.12084 26.7361 7.90453C26.0722 8.98519 25.4325 10.6139 25.503 12.0436C25.5549 13.105 25.9828 14.0622 27.0267 14.6805C28.0645 15.3006 29.1659 15.2339 30.0673 14.751C30.9542 14.2767 31.6417 13.3788 31.8833 12.3016C32.1099 11.2942 32.0254 10.2471 31.7488 9.24051C31.4803 8.26861 31.0274 7.33643 30.5158 6.52111C30.2823 6.1578 30.0371 5.81339 29.7819 5.48557ZM28.8886 6.36221C28.3379 6.95731 27.8439 7.60833 27.416 8.31759C26.8339 9.28216 26.2453 10.7277 26.3286 11.9962C26.3798 12.7706 26.7018 13.4706 27.4744 13.9022C28.2098 14.3106 28.9739 14.2477 29.5903 13.8921C30.2171 13.53 30.6848 12.8643 30.8334 12.0845C30.9912 11.248 30.8789 10.3902 30.6265 9.56756C30.3636 8.71599 29.9433 7.90376 29.4723 7.1945C29.2859 6.90408 29.0911 6.62756 28.8886 6.36221Z" fill="white"/>
</svg>
